<svg width="27" height="27" fill="none" xmlns="http://www.w3.org/2000/svg"><path d="M16.557 17.929a1.736 1.736 0 00-2.184.312c-.627.684-1.215 1.023-1.798 1.035-.55.014-1.126-.28-1.713-.867l-1.656-1.656c-.587-.587-.88-1.164-.867-1.713.012-.583.35-1.172 1.034-1.799.613-.562.745-1.48.313-2.183a11.781 11.781 0 00-3.919-3.89 1.733 1.733 0 00-2.128.26L1.983 9.084c-.927.928-1.388 2.022-1.368 3.254.047 2.92 2.807 5.58 3 5.762l1.331 1.331a.527.527 0 00.746-.745l-1.337-1.337a.422.422 0 00-.012-.012c-.026-.025-2.635-2.506-2.673-5.02-.015-.946.332-1.76 1.058-2.487l1.657-1.656a.681.681 0 01.836-.104 10.885 10.885 0 013.566 3.54.68.68 0 01-.127.854c-.894.82-1.357 1.68-1.376 2.553-.018.848.377 1.683 1.176 2.481l1.656 1.657c.799.798 1.632 1.195 2.481 1.175.875-.018 1.734-.481 2.554-1.376a.68.68 0 01.854-.126 10.885 10.885 0 013.54 3.566.682.682 0 01-.104.836l-1.656 1.656c-.727.727-1.542 1.071-2.488 1.059-2.513-.039-4.995-2.647-5.02-2.673a.673.673 0 00-.011-.012l-1.297-1.298a.527.527 0 00-.746.746L9.514 24c.183.192 2.843 2.952 5.763 3h.076c1.2 0 2.27-.46 3.177-1.368l1.657-1.656a1.734 1.734 0 00.26-2.128 11.781 11.781 0 00-3.89-3.919z" fill="#F3CD82"/><path d="M19.383 0a7.01 7.01 0 00-7.002 7.002c0 1.54.487 2.992 1.41 4.212v3.149c0 .362.374.621.714.493l2.954-1.12a7.007 7.007 0 008.926-6.734A7.01 7.01 0 0019.383 0zm0 12.949a5.94 5.94 0 01-1.785-.273.528.528 0 00-.345.01l-2.408.913v-2.545a.526.526 0 00-.115-.348 5.883 5.883 0 01-1.294-3.704 5.954 5.954 0 015.947-5.947 5.954 5.954 0 015.947 5.947 5.954 5.954 0 01-5.947 5.947z" fill="#F3CD82"/><path d="M19.453 3.23a.527.527 0 00-.527.528v3.99a.527.527 0 001.054 0v-3.99a.527.527 0 00-.527-.527zm.487 6.739a.532.532 0 00-.689-.285.532.532 0 00-.285.688c.11.266.423.396.689.286a.532.532 0 00.285-.69z" fill="#717275"/><path d="M7.43 20.48a.532.532 0 00-.69-.285.532.532 0 00-.285.688c.11.266.423.396.689.286a.532.532 0 00.285-.69z" fill="#F3CD82"/></svg>