<svg width="16" height="16" xmlns="http://www.w3.org/2000/svg"><path d="M14.833 2.357A4.054 4.054 0 0011.75.97c-1.686 0-2.753 1.006-3.352 1.851-.155.22-.287.439-.398.646a6.131 6.131 0 00-.398-.646C7.003 1.975 5.936.97 4.25.97a4.054 4.054 0 00-3.083 1.388C.415 3.211 0 4.355 0 5.578c0 1.332.52 2.57 1.636 3.897.997 1.187 2.432 2.41 4.094 3.825.619.528 1.26 1.073 1.94 1.67l.021.018a.468.468 0 00.618 0l.02-.018c.682-.597 1.322-1.142 1.941-1.67 1.662-1.416 3.097-2.639 4.094-3.825C15.48 8.148 16 6.91 16 5.578c0-1.223-.415-2.367-1.167-3.22zm-5.17 10.23c-.534.454-1.084.922-1.663 1.426-.58-.504-1.129-.972-1.662-1.427-3.252-2.77-5.4-4.601-5.4-7.008 0-.994.33-1.918.933-2.601A3.13 3.13 0 014.25 1.906c1.285 0 2.116.792 2.587 1.456.422.596.642 1.196.717 1.427a.469.469 0 00.892 0c.075-.23.295-.831.717-1.427.47-.664 1.302-1.456 2.587-1.456.926 0 1.77.38 2.38 1.07.601.684.932 1.608.932 2.602 0 2.407-2.148 4.237-5.4 7.009z"/></svg>