<svg width="27" height="27" viewBox="0 0 27 27" fill="none" xmlns="http://www.w3.org/2000/svg">
<path d="M16.5566 17.929C15.8534 17.4972 14.9354 17.6286 14.3734 18.2414C13.7465 18.925 13.1581 19.2635 12.5747 19.276C12.0244 19.2895 11.4492 18.9962 10.8622 18.4092L9.20558 16.7525C8.61854 16.1655 8.32692 15.5893 8.33873 15.04C8.35134 14.4566 8.68979 13.8681 9.37333 13.2413C9.9861 12.6794 10.1175 11.7612 9.68578 11.0581C8.4595 9.06125 6.87805 7.84034 5.7673 7.16782C5.08212 6.75285 4.207 6.86006 3.6391 7.42812L1.98271 9.08445C1.05554 10.0116 0.595483 11.1062 0.615364 12.3378C0.662403 15.258 3.42236 17.9181 3.615 18.1001L4.94639 19.4315C5.15237 19.6374 5.48617 19.6374 5.69221 19.4315C5.89814 19.2256 5.89814 18.8917 5.69221 18.6857L4.35518 17.3487C4.35138 17.3449 4.34722 17.3409 4.34321 17.3372C4.3169 17.3124 1.70834 14.8305 1.66984 12.3179C1.65534 11.3708 2.00159 10.557 2.72848 9.83017L4.38487 8.17383C4.60862 7.95003 4.95245 7.90731 5.22097 8.06995C6.04859 8.57113 7.61242 9.69744 8.78698 11.6101C8.95494 11.8836 8.90173 12.2427 8.66047 12.464C7.7662 13.2842 7.30319 14.1432 7.28426 15.0173C7.26591 15.8652 7.66141 16.7 8.45971 17.4983L10.1164 19.155C10.9147 19.9533 11.7479 20.3499 12.5974 20.3305C13.4715 20.3116 14.3305 19.8485 15.1507 18.9542C15.3719 18.713 15.731 18.6597 16.0046 18.8278C17.9172 20.0022 19.0436 21.5661 19.5448 22.3937C19.7074 22.6622 19.6646 23.0061 19.4409 23.2299L17.7845 24.8862C17.0576 25.613 16.2431 25.9571 15.2967 25.9448C12.7841 25.9063 10.3023 23.2978 10.2778 23.2717C10.2739 23.2676 10.27 23.2636 10.266 23.2596L8.96886 21.9625C8.76288 21.7566 8.42907 21.7566 8.22304 21.9625C8.01711 22.1684 8.01711 22.5023 8.22304 22.7083L9.5145 23.9997C9.69654 24.1923 12.3566 26.9522 15.2768 26.9994C15.3023 26.9998 15.3277 27 15.3531 27C16.5536 27 17.6222 26.54 18.5302 25.6321L20.1866 23.9757C20.7546 23.4076 20.8616 22.5325 20.4469 21.8475C19.7743 20.7367 18.5534 19.1552 16.5566 17.929Z" fill="#F3CD82"/>
<path d="M19.3832 0C15.5223 0 12.3813 3.14102 12.3813 7.00175C12.3813 8.54107 12.8679 9.99353 13.7904 11.2144V14.3625C13.7904 14.7248 14.1648 14.9844 14.5046 14.8556L17.4592 13.7356C18.0829 13.9135 18.7291 14.0036 19.3832 14.0036C23.2439 14.0036 26.3849 10.8626 26.3849 7.00181C26.385 3.14102 23.2439 0 19.3832 0ZM19.3832 12.9489C18.7741 12.9489 18.1734 12.8572 17.5976 12.6761C17.4847 12.6407 17.3632 12.6441 17.2525 12.686L14.845 13.5986V11.0539C14.8497 10.9287 14.8096 10.8049 14.7304 10.7057C13.8836 9.64348 13.436 8.36272 13.436 7.00181C13.436 3.72257 16.1039 1.05469 19.3832 1.05469C22.6624 1.05469 25.3302 3.72257 25.3302 7.00175C25.3303 10.281 22.6624 12.9489 19.3832 12.9489Z" fill="#F3CD82"/>
<path d="M19.4529 3.23065C19.1617 3.23065 18.9256 3.4668 18.9256 3.758L18.9255 7.74893C18.9255 8.04013 19.1616 8.27628 19.4529 8.27628C19.7441 8.27628 19.9802 8.04013 19.9802 7.74893L19.9803 3.758C19.9803 3.46674 19.7442 3.23065 19.4529 3.23065Z" fill="#717275"/>
<path d="M19.9399 9.96891C19.8294 9.7035 19.5168 9.57388 19.2511 9.68362C18.9854 9.79336 18.8563 10.107 18.9658 10.3723C19.0754 10.6378 19.3892 10.7679 19.6546 10.6576C19.9205 10.5471 20.049 10.235 19.9399 9.96891Z" fill="#717275"/>
<path d="M7.42907 20.4799C7.31854 20.2147 7.0063 20.0843 6.74031 20.1946C6.47516 20.3045 6.34475 20.6179 6.45507 20.8833C6.56529 21.1486 6.87821 21.2789 7.14378 21.1686C7.40877 21.0586 7.53955 20.7453 7.42907 20.4799Z" fill="#F3CD82"/>
</svg>
